<svg width="1437" height="917" viewBox="0 0 1437 917" fill="none" xmlns="http://www.w3.org/2000/svg">
<path fill-rule="evenodd" clip-rule="evenodd" d="M398.282 75.2052C379.132 88.3535 358.32 100.25 332.539 107.753C307.087 115.161 277.012 119.262 245.657 122.295C230.96 123.716 215.976 124.904 201.051 126.087L201.047 126.087L201.045 126.087L198.055 126.324C182.139 127.586 166.316 128.861 150.995 130.427C120.349 133.559 91.7481 137.855 68.4842 145.534C45.214 153.216 27.366 164.257 18.1131 180.821C-21.1438 251.101 5.99929 364.494 133.83 462.9C197.442 511.873 279.626 538.966 366.292 563.378C380.933 567.502 395.703 571.55 410.532 575.614C483.444 595.596 557.783 615.969 625.356 647.756C684.463 675.559 734.277 711.828 783.388 747.586C789.955 752.368 796.511 757.141 803.074 761.883C858.727 802.095 914.966 840.116 984.389 862.973C1060.5 888.042 1139.42 905.663 1210.13 912.652C1280.87 919.641 1343.34 915.988 1386.61 898.564C1407.78 890.041 1420.15 877.359 1426.88 861.985C1433.63 846.59 1434.74 828.444 1433.27 808.965C1432.07 792.932 1429.12 776.041 1426.16 759.079C1425.53 755.432 1424.89 751.783 1424.27 748.138C1420.77 727.555 1417.8 707.124 1418.49 688.346C1419.14 670.696 1422.78 653.794 1426.77 637.073C1427.35 634.683 1427.92 632.296 1428.5 629.911L1428.52 629.82L1428.52 629.817C1431.98 615.541 1435.42 601.34 1437.22 586.808C1441.42 552.878 1436.67 517.163 1402.09 474.876C1366.91 431.857 1311.63 392.727 1249.29 354.937C1218.12 336.045 1185.2 317.495 1152.16 298.965C1149.84 297.664 1147.52 296.363 1145.2 295.062L1145.2 295.059C1114.47 277.834 1083.75 260.606 1054.34 243.124C1018.39 221.749 982.718 198.134 947.007 174.284C945.736 173.435 944.466 172.586 943.195 171.737C941.182 170.392 939.169 169.046 937.155 167.7L937.035 167.62L937.034 167.619C904.634 145.963 872.173 124.266 839.393 104.013C767.102 59.3493 693.3 21.7366 615.277 7.10722C576.215 -0.217297 545.469 0.539391 519.718 6.24549C493.967 11.9515 473.184 22.6128 454.052 35.1371C444.483 41.4008 435.33 48.1284 426.172 54.9373C425.222 55.6436 424.272 56.3509 423.321 57.0585L423.246 57.1146L423.208 57.1429L423.17 57.1708L423.145 57.1896L423.144 57.1902C414.993 63.2584 406.799 69.3571 398.282 75.2052ZM519.502 5.26917C545.406 -0.470965 576.291 -1.22054 615.461 6.12435C693.667 20.788 767.595 58.4786 839.918 103.163C872.715 123.425 905.19 145.132 937.588 166.787L937.588 166.787L937.589 166.788C940.914 169.01 944.239 171.232 947.562 173.452C983.274 197.303 1018.92 220.904 1054.85 242.264C1084.24 259.739 1114.96 276.958 1145.68 294.183C1148 295.487 1150.33 296.79 1152.65 298.093C1185.69 316.622 1218.62 335.18 1249.81 354.082C1312.16 391.879 1367.57 431.082 1402.86 474.243C1437.63 516.76 1442.44 552.755 1438.21 586.931C1436.41 601.525 1432.95 615.789 1429.49 630.063L1429.48 630.117C1428.9 632.512 1428.32 634.908 1427.75 637.305C1423.76 654.021 1420.14 670.84 1419.49 688.383C1418.8 707.047 1421.75 727.387 1425.26 747.97C1425.87 751.605 1426.51 755.247 1427.14 758.889C1430.1 775.853 1433.06 792.803 1434.27 808.89C1435.74 828.433 1434.64 846.771 1427.8 862.387C1420.95 878.024 1408.37 890.881 1386.98 899.491C1343.49 917.006 1280.83 920.642 1210.04 913.647C1139.23 906.65 1060.24 889.011 984.076 863.923C914.496 841.014 858.15 802.911 802.488 762.693C795.93 757.955 789.382 753.187 782.822 748.411L782.796 748.392C733.679 712.631 683.945 676.42 624.931 648.661C557.443 616.914 483.204 596.568 410.292 576.585L410.291 576.585L410.289 576.585L410.288 576.584L410.286 576.584C395.453 572.519 380.675 568.469 366.021 564.341C279.359 539.93 197.001 512.796 133.22 463.693C5.21349 365.151 -22.3716 251.249 17.2401 180.333C26.6724 163.448 44.805 152.298 68.1708 144.585C91.5429 136.87 120.234 132.566 150.894 129.432C166.227 127.865 182.061 126.589 197.976 125.327L200.963 125.09L200.965 125.09L200.966 125.09C215.895 123.907 230.872 122.72 245.56 121.3C276.903 118.268 306.902 114.174 332.26 106.793C357.902 99.3308 378.615 87.4958 397.716 74.3808C406.217 68.5441 414.394 62.4571 422.548 56.3874L422.578 56.3651L422.62 56.3336L422.663 56.3018C423.634 55.579 424.605 54.8565 425.576 54.1348C434.734 47.3257 443.908 40.5821 453.504 34.3005C472.7 21.7343 493.596 11.0094 519.502 5.26917ZM437.387 118.136C420.351 129.817 401.835 140.389 378.896 147.057C356.253 153.638 329.499 157.281 301.61 159.975C288.538 161.237 275.209 162.292 261.934 163.343L261.933 163.343L261.931 163.343L259.271 163.554C245.114 164.675 231.041 165.807 217.416 167.198C190.158 169.98 164.725 173.795 144.039 180.615C123.347 187.436 107.489 197.237 99.2694 211.932C64.3728 274.324 88.4888 375.013 202.176 462.411C258.745 505.899 331.833 529.961 408.916 551.645C421.931 555.306 435.06 558.9 448.242 562.507C513.099 580.259 579.232 598.36 639.344 626.602C691.928 651.301 736.243 683.522 779.928 715.286C785.764 719.53 791.589 723.765 797.42 727.973C846.919 763.689 896.932 797.458 958.667 817.762C1026.36 840.024 1096.55 855.673 1159.45 861.88C1222.36 868.089 1277.92 864.846 1316.38 849.379C1335.2 841.811 1346.19 830.554 1352.18 816.913C1358.17 803.249 1359.16 787.142 1357.85 769.844C1356.78 755.608 1354.16 740.611 1351.53 725.547C1350.96 722.306 1350.4 719.061 1349.84 715.82C1346.73 697.538 1344.09 679.385 1344.7 662.698C1345.28 647.015 1348.52 631.998 1352.07 617.145C1352.59 614.991 1353.11 612.841 1353.63 610.693C1356.7 598.014 1359.76 585.405 1361.36 572.503C1365.09 542.379 1360.88 510.671 1330.14 473.125C1298.86 434.922 1249.69 400.169 1194.24 366.603C1166.52 349.823 1137.24 333.347 1107.86 316.888C1106.03 315.862 1104.2 314.837 1102.36 313.812L1102.03 313.625L1101.68 313.427C1074.35 298.124 1047.01 282.819 1020.85 267.287C988.869 248.3 957.143 227.323 925.38 206.139C922.423 204.167 919.467 202.193 916.51 200.22L916.507 200.218L916.504 200.216L916.503 200.215C887.687 180.98 858.818 161.711 829.665 143.723C765.368 104.052 699.734 70.6477 630.348 57.6554C595.612 51.1508 568.272 51.8234 545.377 56.89C522.482 61.9565 504.003 71.423 486.989 82.5455C478.48 88.1083 470.341 94.0833 462.195 100.131C461.297 100.798 460.4 101.465 459.501 102.133C452.251 107.523 444.963 112.941 437.387 118.136ZM545.161 55.9136C568.21 50.813 595.687 50.1475 630.532 56.6725C700.1 69.6991 765.861 103.181 830.19 142.872C859.358 160.869 888.242 180.149 917.055 199.382L917.057 199.383C920.017 201.358 922.976 203.334 925.935 205.307C957.698 226.492 989.405 247.455 1021.36 266.427C1047.51 281.953 1074.84 297.253 1102.17 312.558L1102.71 312.86C1104.59 313.911 1106.47 314.963 1108.34 316.015C1137.73 332.473 1167.02 348.958 1194.76 365.747C1250.22 399.321 1299.52 434.147 1330.92 472.491C1361.84 510.268 1366.12 542.256 1362.35 572.626C1360.75 585.59 1357.67 598.262 1354.6 610.938C1354.08 613.084 1353.56 615.23 1353.04 617.377C1349.49 632.224 1346.28 647.159 1345.7 662.735C1345.09 679.308 1347.72 697.369 1350.83 715.652C1351.38 718.87 1351.94 722.096 1352.51 725.321L1352.51 725.354C1355.14 740.42 1357.77 755.478 1358.85 769.769C1360.16 787.131 1359.18 803.431 1353.09 817.314C1346.99 831.219 1335.79 842.651 1316.75 850.307C1278.07 865.864 1222.32 869.09 1159.35 862.875C1096.37 856.66 1026.11 840.993 958.354 818.712C896.462 798.356 846.342 764.506 796.835 728.783C791 724.573 785.173 720.337 779.337 716.093L779.337 716.093C735.645 684.325 691.41 652.162 638.919 627.507C578.892 599.305 512.86 581.231 448.004 563.479L447.986 563.475L447.962 563.468L447.938 563.461L447.911 563.454C434.754 559.853 421.645 556.265 408.645 552.608C331.566 530.925 258.305 506.822 201.567 463.204C87.7038 375.67 63.1444 274.472 98.3966 211.444C106.796 196.427 122.939 186.518 143.726 179.665C164.52 172.81 190.043 168.987 217.314 166.203C230.953 164.811 245.036 163.678 259.192 162.557L261.851 162.346C275.129 161.295 288.45 160.241 301.514 158.979C329.39 156.287 356.068 152.651 378.617 146.096C401.416 139.469 419.834 128.959 436.821 117.311C444.381 112.128 451.653 106.722 458.905 101.33C459.803 100.663 460.701 99.9953 461.599 99.3285C469.745 93.2802 477.906 87.2892 486.442 81.7085C503.52 70.5442 522.112 61.0143 545.161 55.9136ZM427.41 187.233C447.362 181.434 463.467 172.242 478.281 162.086C484.869 157.57 491.206 152.86 497.509 148.176L497.509 148.175C498.291 147.595 499.072 147.014 499.852 146.435C506.935 141.178 514.01 135.985 521.406 131.151C536.194 121.486 552.253 113.262 572.148 108.86C592.044 104.459 615.804 103.874 645.998 109.526C706.312 120.817 763.368 149.847 819.266 184.328C844.616 199.966 869.719 216.718 894.777 233.441C897.344 235.154 899.911 236.867 902.478 238.579C930.092 256.992 957.675 275.226 985.48 291.731C1008.21 305.224 1031.97 318.52 1055.72 331.814L1055.73 331.82C1057.53 332.828 1059.33 333.836 1061.13 334.845C1086.68 349.151 1112.14 363.472 1136.24 378.056C1184.45 407.232 1227.19 437.434 1254.38 470.631C1281.09 503.251 1284.75 530.792 1281.51 556.959C1280.12 568.169 1277.46 579.125 1274.79 590.145L1274.79 590.149L1274.77 590.212C1274.57 591.054 1274.36 591.897 1274.16 592.741C1274.04 593.22 1273.93 593.699 1273.81 594.178C1273.69 594.703 1273.56 595.228 1273.44 595.753C1270.35 608.663 1267.53 621.721 1267.03 635.36C1266.49 649.871 1268.79 665.656 1271.49 681.548C1271.97 684.368 1272.47 687.191 1272.96 690.011C1275.25 703.102 1277.52 716.132 1278.45 728.501C1279.59 743.533 1278.73 757.521 1273.52 769.383C1268.33 781.224 1258.78 790.996 1242.44 797.568C1209.01 811.009 1160.72 813.83 1106.03 808.433C1051.35 803.038 990.329 789.435 931.479 770.082C877.817 752.438 834.34 723.092 791.305 692.049C786.235 688.392 781.172 684.711 776.098 681.023C738.116 653.415 699.582 625.405 653.859 603.935C601.594 579.388 544.095 563.654 487.712 548.225L487.711 548.225L487.705 548.223C476.242 545.087 464.825 541.962 453.508 538.779C386.49 519.93 322.957 499.017 273.786 461.225C174.955 385.267 154.015 297.777 184.333 243.591C191.468 230.839 205.238 222.327 223.222 216.4C241.2 210.475 263.306 207.16 287.003 204.742C298.849 203.533 311.084 202.549 323.392 201.574L325.702 201.392L325.703 201.392C337.246 200.478 348.836 199.561 360.203 198.464C384.452 196.122 407.717 192.955 427.41 187.233ZM646.182 108.543C615.88 102.87 591.981 103.448 571.932 107.884C551.882 112.32 535.711 120.607 520.859 130.314C513.435 135.166 506.339 140.374 499.256 145.632C498.49 146.201 497.723 146.771 496.956 147.341L496.914 147.372L496.914 147.372L496.913 147.373L496.912 147.373C490.607 152.059 484.287 156.757 477.716 161.261C462.95 171.383 446.944 180.515 427.131 186.272C407.532 191.968 384.343 195.128 360.107 197.468C348.75 198.565 337.17 199.481 325.626 200.395L325.625 200.395L325.621 200.395L323.313 200.578C311.006 201.552 298.76 202.537 286.902 203.747C263.191 206.167 240.995 209.49 222.909 215.451C204.829 221.409 190.775 230.03 183.46 243.103C152.787 297.925 174.17 385.925 273.177 462.018C322.517 499.94 386.223 520.894 453.237 539.742C464.569 542.929 475.996 546.056 487.465 549.195L487.472 549.197L487.473 549.197C543.856 564.626 601.255 580.334 653.434 604.84C699.065 626.267 737.519 654.218 775.508 681.831C780.582 685.519 785.647 689.2 790.72 692.86C833.764 723.909 877.347 753.336 931.167 771.032C990.074 790.404 1051.17 804.024 1105.93 809.428C1160.68 814.831 1209.16 812.027 1242.81 798.496C1259.37 791.836 1269.13 781.889 1274.44 769.785C1279.74 757.703 1280.59 743.522 1279.45 728.426C1278.52 716.005 1276.23 702.918 1273.94 689.827L1273.94 689.825L1273.94 689.82C1273.45 687.005 1272.96 684.189 1272.48 681.38C1269.77 665.488 1267.49 649.794 1268.03 635.397C1268.53 621.865 1271.32 608.889 1274.41 595.985C1274.85 594.12 1275.31 592.255 1275.76 590.39L1275.76 590.387C1278.43 579.371 1281.1 568.353 1282.5 557.082C1285.78 530.669 1282.05 502.849 1255.15 469.998C1227.85 436.659 1184.98 406.384 1136.76 377.201C1112.64 362.606 1087.17 348.278 1061.62 333.972L1058.7 332.335L1056.22 330.949C1032.46 317.652 1008.72 304.359 985.991 290.871C958.211 274.381 930.648 256.161 903.033 237.747C900.466 236.035 897.898 234.321 895.33 232.607L895.329 232.607C870.274 215.886 845.157 199.124 819.791 183.477C763.861 148.976 706.679 119.868 646.182 108.543ZM516.487 203.993C503.735 212.739 489.868 220.658 472.687 225.653C455.733 230.581 435.705 233.308 414.835 235.324C405.053 236.269 395.079 237.059 385.146 237.845L383.154 238.003C372.561 238.842 362.032 239.689 351.839 240.73C331.445 242.812 312.426 245.666 296.962 250.764C281.491 255.865 269.661 263.186 263.533 274.143C237.47 320.75 255.459 396.043 340.502 461.426C382.809 493.953 437.475 511.955 495.152 528.182C504.895 530.923 514.723 533.613 524.591 536.315C573.114 549.597 622.602 563.143 667.584 584.275C706.941 602.766 740.109 626.888 772.795 650.659C777.162 653.835 781.52 657.004 785.884 660.153C822.919 686.882 860.326 712.142 906.497 727.33C957.14 743.986 1009.65 755.695 1056.7 760.34C1103.77 764.986 1145.32 762.558 1174.08 750.993C1188.13 745.34 1196.33 736.939 1200.79 726.764C1205.26 716.566 1206 704.537 1205.03 691.6C1204.23 680.952 1202.27 669.736 1200.3 658.462L1200.29 658.441C1199.87 656.022 1199.45 653.601 1199.04 651.182C1196.71 637.5 1194.73 623.902 1195.19 611.399C1195.62 599.65 1198.05 588.402 1200.7 577.287C1201.09 575.676 1201.48 574.068 1201.87 572.462L1201.87 572.458C1204.17 562.97 1206.45 553.543 1207.65 543.895C1210.44 521.384 1207.29 497.691 1184.31 469.622C1160.92 441.051 1124.15 415.054 1082.66 389.935C1061.92 377.379 1040.02 365.05 1018.03 352.733L1015.85 351.514L1013.39 350.138L1013.39 350.137C992.944 338.687 972.493 327.235 952.92 315.613C928.988 301.403 905.247 285.703 881.481 269.85C879.268 268.374 877.055 266.897 874.841 265.419L874.84 265.418C853.279 251.024 831.679 236.604 809.868 223.144C761.763 193.459 712.668 168.471 660.771 158.752C634.794 153.887 614.356 154.391 597.244 158.179C580.134 161.966 566.321 169.042 553.599 177.36C547.236 181.521 541.149 185.99 535.054 190.516C534.696 190.782 534.338 191.048 533.98 191.314L533.038 192.015L533.035 192.017C527.611 196.049 522.157 200.104 516.487 203.993ZM597.028 157.202C614.293 153.381 634.869 152.884 660.955 157.769C713.035 167.522 762.256 192.588 810.393 222.293C832.221 235.763 853.835 250.193 875.394 264.586C876.879 265.577 878.365 266.569 879.85 267.56L882.036 269.018C905.802 284.872 929.523 300.558 953.431 314.754C972.992 326.369 993.433 337.815 1013.88 349.266C1015.43 350.131 1016.97 350.996 1018.52 351.861C1040.5 364.177 1062.42 376.514 1083.18 389.08C1124.68 414.206 1161.58 440.276 1185.09 468.989C1208.25 497.288 1211.46 521.261 1208.64 544.018C1207.44 553.726 1205.14 563.216 1202.84 572.7L1202.84 572.706C1202.45 574.31 1202.06 575.915 1201.67 577.52C1199.02 588.629 1196.62 599.794 1196.19 611.436C1195.73 623.825 1197.69 637.331 1200.02 651.014C1200.43 653.429 1200.86 655.851 1201.28 658.272C1203.25 669.547 1205.22 680.823 1206.03 691.525C1207 704.526 1206.27 716.748 1201.71 727.165C1197.13 737.604 1188.72 746.181 1174.45 751.92C1145.47 763.576 1103.73 765.987 1056.61 761.335C1009.47 756.682 956.885 744.955 906.184 728.28C859.856 713.04 822.342 687.699 785.299 660.964C780.932 657.813 776.572 654.642 772.205 651.466L772.203 651.465C739.512 627.691 706.424 603.628 667.159 585.181C622.263 564.088 572.875 550.569 524.353 537.287L524.352 537.286L524.327 537.279L524.312 537.275C514.451 534.576 504.626 531.886 494.881 529.145C437.208 512.919 382.369 494.876 339.893 462.218C254.674 396.701 236.241 320.898 262.66 273.654C268.968 262.377 281.083 254.947 296.649 249.815C312.221 244.68 331.33 241.818 351.737 239.735C361.944 238.693 372.483 237.845 383.075 237.006L385.063 236.849L385.064 236.848C395 236.062 404.966 235.273 414.739 234.329C435.596 232.314 455.547 229.594 472.407 224.692C489.449 219.738 503.218 211.881 515.922 203.168C521.577 199.29 527.016 195.246 532.443 191.211L533.483 190.438C533.684 190.288 533.886 190.138 534.088 189.988L534.458 189.714C540.553 185.187 546.661 180.702 553.052 176.523C565.838 168.163 579.763 161.024 597.028 157.202ZM519.584 263.604C533.887 259.445 545.429 252.853 556.04 245.575C560.758 242.338 565.297 238.964 569.809 235.609C570.368 235.193 570.927 234.777 571.485 234.362C576.555 230.597 581.616 226.881 586.907 223.421C597.483 216.505 608.962 210.624 623.181 207.477C637.401 204.329 654.389 203.909 675.987 207.955C719.135 216.036 759.962 236.816 799.972 261.508C818.118 272.707 836.087 284.705 854.026 296.682C855.863 297.908 857.699 299.134 859.535 300.359C879.302 313.547 899.05 326.607 918.957 338.43C935.238 348.098 952.249 357.625 969.255 367.149L969.257 367.15C970.543 367.87 971.83 368.591 973.117 369.312C991.407 379.558 1009.63 389.814 1026.88 400.258C1061.39 421.153 1091.96 442.773 1111.4 466.528C1130.5 489.857 1133.11 509.543 1130.79 528.25C1129.8 536.272 1127.9 544.111 1125.98 552.006C1125.66 553.342 1125.34 554.679 1125.02 556.019C1122.81 565.266 1120.79 574.63 1120.43 584.412C1120.04 594.823 1121.69 606.142 1123.63 617.523C1123.89 619.039 1124.15 620.556 1124.41 622.073L1124.68 623.58V623.581C1126.31 632.958 1127.94 642.283 1128.61 651.135C1129.42 661.891 1128.8 671.88 1125.09 680.344C1121.39 688.787 1114.58 695.761 1102.91 700.456C1079.02 710.067 1044.48 712.088 1005.34 708.224C966.21 704.361 922.539 694.624 880.418 680.771C842.028 668.14 810.922 647.134 780.117 624.901C776.502 622.292 772.89 619.665 769.272 617.033L769.23 617.003L769.229 617.002C742.043 597.231 714.449 577.162 681.708 561.777C644.283 544.192 603.11 532.921 562.75 521.872L562.749 521.871C554.543 519.625 546.37 517.387 538.269 515.108C490.295 501.609 444.841 486.637 409.665 459.589C338.943 405.207 324.017 342.621 345.667 303.903C350.748 294.816 360.564 288.735 373.424 284.495C386.278 280.256 402.09 277.883 419.051 276.151C427.529 275.285 436.286 274.581 445.096 273.882L446.746 273.752C455.01 273.098 463.31 272.44 471.45 271.654C488.809 269.976 505.475 267.707 519.584 263.604ZM676.171 206.972C654.465 202.906 637.338 203.319 622.965 206.5C608.591 209.682 596.999 215.626 586.359 222.584C581.042 226.062 575.959 229.794 570.889 233.559C570.532 233.824 570.176 234.09 569.819 234.355L569.213 234.805C564.699 238.162 560.176 241.525 555.474 244.75C544.912 251.995 533.468 258.526 519.305 262.644C505.289 266.719 488.701 268.982 471.354 270.658C463.226 271.444 454.939 272.1 446.677 272.754L446.667 272.755L445.017 272.886C436.208 273.584 427.44 274.289 418.95 275.156C401.975 276.889 386.073 279.271 373.111 283.545C360.156 287.817 350.055 294.006 344.794 303.415C322.789 342.768 338.158 405.865 409.056 460.382C444.401 487.56 490.028 502.572 537.998 516.07C546.103 518.351 554.274 520.588 562.475 522.833L562.511 522.843C602.87 533.893 643.943 545.138 681.282 562.682C713.932 578.024 741.446 598.033 768.638 617.809L768.639 617.81C772.272 620.452 775.899 623.09 779.532 625.712C810.345 647.951 841.558 669.038 880.106 681.721C922.284 695.593 966.027 705.348 1005.24 709.219C1044.44 713.089 1079.17 711.085 1103.29 701.384C1115.17 696.601 1122.19 689.451 1126 680.746C1129.81 672.062 1130.42 661.88 1129.61 651.06C1128.93 642.154 1127.3 632.769 1125.66 623.39L1125.64 623.274C1125.29 621.299 1124.95 619.324 1124.61 617.355C1122.68 605.973 1121.05 594.746 1121.43 584.449C1121.78 574.773 1123.78 565.492 1125.99 556.251C1126.16 555.529 1126.34 554.806 1126.51 554.084C1126.66 553.473 1126.81 552.862 1126.95 552.252C1128.87 544.359 1130.78 536.457 1131.78 528.372C1134.13 509.42 1131.46 489.455 1112.18 465.894C1092.62 441.998 1061.92 420.304 1027.39 399.402C1010.13 388.948 991.894 378.685 973.605 368.439C972.319 367.718 971.032 366.998 969.745 366.277L969.74 366.274C952.734 356.75 935.736 347.23 919.468 337.57C899.586 325.762 879.858 312.715 860.09 299.527C858.253 298.302 856.417 297.076 854.579 295.849C836.643 283.873 818.659 271.866 800.497 260.657C760.454 235.945 719.502 215.087 676.171 206.972Z" fill="url(#paint0_linear_2_28)"/>
<defs>
<linearGradient id="paint0_linear_2_28" x1="720.004" y1="0.790088" x2="720.004" y2="916.991" gradientUnits="userSpaceOnUse">
<stop stop-color="#E1E1E1"/>
<stop offset="1" stop-color="#E1E1E1" stop-opacity="0"/>
</linearGradient>
</defs>
</svg>
